<svg width="58" height="22" viewBox="0 0 58 22" fill="none" xmlns="http://www.w3.org/2000/svg">
<rect width="58" height="22" rx="3" fill="url(#paint0_linear_15726_1329)"/>
<path fill-rule="evenodd" clip-rule="evenodd" d="M10.1587 13.6588L8.02542 14.7589C7.82718 14.8611 7.58196 14.7863 7.47766 14.5898C7.43613 14.5124 7.42182 14.4237 7.43694 14.3375L7.84636 12.0077L6.12248 10.3578C5.96216 10.2044 5.95872 9.95272 6.11516 9.7953C6.17738 9.73263 6.25896 9.69186 6.34723 9.67929L8.73264 9.34121L9.79929 7.22181C9.89841 7.02487 10.1441 6.94394 10.3423 7.04114C10.4223 7.07983 10.4871 7.14333 10.5265 7.22181L11.5932 9.34121L13.9786 9.67929C14.0536 9.68982 14.124 9.72074 14.182 9.76855C14.2399 9.81637 14.2831 9.87915 14.3065 9.94978C14.3299 10.0204 14.3326 10.0961 14.3144 10.1681C14.2962 10.2402 14.2577 10.3059 14.2034 10.3576L12.4795 12.0075L12.8889 14.3373C12.898 14.3888 12.8966 14.4415 12.8848 14.4925C12.8731 14.5434 12.8512 14.5916 12.8204 14.6343C12.7897 14.6769 12.7506 14.7132 12.7055 14.741C12.6605 14.7689 12.6102 14.7877 12.5577 14.7965C12.4698 14.8113 12.3793 14.7973 12.3004 14.7542L10.1671 13.6542L10.1587 13.6588ZM19.5786 13.6588L17.4449 14.7589C17.2466 14.8611 17.0014 14.7863 16.8971 14.5898C16.8556 14.5124 16.8413 14.4237 16.8564 14.3375L17.2658 12.0077L15.5419 10.3578C15.3816 10.2044 15.3782 9.95272 15.5346 9.7953C15.5968 9.73263 15.6784 9.69186 15.7667 9.67929L18.1521 9.34121L19.2188 7.22181C19.3179 7.02487 19.5635 6.94394 19.7618 7.04114C19.8418 7.07983 19.9066 7.14333 19.946 7.22181L21.0127 9.34121L23.3981 9.67929C23.473 9.68982 23.5435 9.72074 23.6014 9.76855C23.6594 9.81637 23.7025 9.87915 23.7259 9.94978C23.7493 10.0204 23.7521 10.0961 23.7339 10.1681C23.7156 10.2402 23.6772 10.3059 23.6228 10.3576L21.8989 12.0075L22.3084 14.3373C22.3174 14.3888 22.316 14.4415 22.3043 14.4925C22.2925 14.5434 22.2707 14.5916 22.2399 14.6343C22.2091 14.6769 22.1701 14.7132 22.125 14.741C22.0799 14.7689 22.0297 14.7877 21.9772 14.7965C21.8892 14.8113 21.7987 14.7973 21.7199 14.7542L19.5866 13.6542L19.5786 13.6588ZM29 13.6588L26.8663 14.7589C26.668 14.8611 26.4228 14.7863 26.3185 14.5898C26.277 14.5124 26.2627 14.4237 26.2778 14.3375L26.6872 12.0077L24.9633 10.3578C24.9089 10.3061 24.8704 10.2404 24.8521 10.1683C24.8339 10.0962 24.8366 10.0205 24.86 9.94984C24.8834 9.87917 24.9266 9.81636 24.9846 9.76853C25.0426 9.72071 25.1131 9.68979 25.1881 9.67929L27.5735 9.34121L28.6402 7.22181C28.7393 7.02487 28.9849 6.94394 29.1832 7.04114C29.2631 7.07995 29.3278 7.14343 29.3674 7.22181L30.4341 9.34121L32.8195 9.67929C33.0414 9.71099 33.1944 9.91279 33.1625 10.13C33.1497 10.2166 33.1081 10.2966 33.0442 10.3576L31.3203 12.0075L31.7298 14.3373C31.7675 14.5539 31.6192 14.7595 31.3983 14.7965C31.3104 14.8113 31.2201 14.7973 31.1411 14.7542L29.0078 13.6542L29 13.6588ZM38.4199 13.6588L36.2866 14.7589C36.2393 14.7832 36.1876 14.7981 36.1345 14.8028C36.0813 14.8075 36.0277 14.8018 35.9768 14.7861C35.9259 14.7704 35.8786 14.7449 35.8377 14.7113C35.7969 14.6776 35.7632 14.6363 35.7386 14.5898C35.6973 14.5125 35.6826 14.4237 35.6955 14.3375L36.105 12.0077L34.3811 10.3578C34.3267 10.3061 34.2882 10.2404 34.2699 10.1683C34.2516 10.0962 34.2544 10.0205 34.2778 9.94984C34.3012 9.87917 34.3443 9.81636 34.4023 9.76853C34.4603 9.72071 34.5308 9.68979 34.6058 9.67929L36.9912 9.34121L38.0579 7.22181C38.157 7.02487 38.4027 6.94394 38.6009 7.04114C38.6808 7.07995 38.7456 7.14343 38.7851 7.22181L39.8518 9.34121L42.2372 9.67929C42.2899 9.68675 42.3406 9.70432 42.3864 9.73102C42.4322 9.75772 42.4722 9.79301 42.5041 9.83488C42.5359 9.87674 42.5591 9.92436 42.5721 9.975C42.5852 10.0256 42.588 10.0783 42.5803 10.13C42.5673 10.2145 42.526 10.2965 42.4617 10.3576L40.7379 12.0075L41.1473 14.3373C41.1603 14.4105 41.1521 14.4858 41.1236 14.5546C41.0951 14.6235 41.0476 14.6831 40.9863 14.7268C40.925 14.7704 40.8524 14.7964 40.7769 14.8016C40.7013 14.8069 40.6258 14.7913 40.5588 14.7566L38.4251 13.6565L38.4199 13.6588ZM49.0993 8.99889V14.3073L47.8409 13.6586L45.7076 14.7587C45.6406 14.7934 45.565 14.8091 45.4894 14.8039C45.4138 14.7986 45.3413 14.7727 45.2799 14.729C45.2186 14.6854 45.171 14.6257 45.1425 14.5568C45.1141 14.488 45.1059 14.4126 45.1189 14.3394L45.5283 12.0096L43.8044 10.3597C43.75 10.308 43.7115 10.2423 43.6932 10.1702C43.675 10.0981 43.6777 10.0224 43.7011 9.95174C43.7245 9.88107 43.7677 9.81826 43.8257 9.77043C43.8836 9.72261 43.9542 9.69169 44.0292 9.6812L46.4146 9.34311L47.4812 7.22371C47.5804 7.02677 47.826 6.94584 48.0242 7.04304C48.1043 7.08173 48.169 7.14524 48.2085 7.22371L49.1027 8.99868L49.0993 8.99889Z" fill="white"/>
<path d="M45.6644 14.6779L47.8423 13.555L50.0202 14.6779C50.0715 14.7044 50.1293 14.7163 50.1872 14.7123C50.245 14.7082 50.3005 14.6884 50.3474 14.655C50.3943 14.6215 50.4307 14.5759 50.4525 14.5232C50.4744 14.4706 50.4807 14.4129 50.4708 14.3569L50.0549 11.9789L51.8167 10.2948C51.8656 10.2483 51.8975 10.187 51.9072 10.1204C51.9318 9.95393 51.8141 9.79926 51.6443 9.77538L49.2093 9.42842L48.1203 7.26464L48.0238 7.31113L48.1203 7.26464C48.0947 7.21365 48.0551 7.17071 48.0058 7.14067C47.9566 7.11064 47.8998 7.09473 47.8419 7.09473C47.7839 7.09473 47.7271 7.11064 47.6779 7.14067C47.6287 7.17071 47.5891 7.21365 47.5635 7.26464L46.4744 9.42842L44.0395 9.77538C43.9821 9.78349 43.9282 9.8072 43.8838 9.84383C43.8395 9.88045 43.8065 9.92852 43.7886 9.98259C43.7707 10.0367 43.7686 10.0946 43.7825 10.1497C43.7965 10.2049 43.8259 10.2552 43.8675 10.2948L43.9425 10.2193L43.8675 10.2948L45.6293 11.9789L45.2134 14.3569C45.2018 14.4228 45.2128 14.4909 45.2447 14.55C45.2636 14.5855 45.2895 14.6169 45.3208 14.6425C45.3522 14.6681 45.3883 14.6873 45.4273 14.6992C45.4662 14.7111 45.5072 14.7153 45.5478 14.7117C45.5884 14.708 45.6279 14.6965 45.664 14.6779H45.6644Z" fill="white"/>
<defs>
<linearGradient id="paint0_linear_15726_1329" x1="10.5" y1="22" x2="86" y2="22" gradientUnits="userSpaceOnUse">
<stop stop-color="#FDC600"/>
<stop offset="1" stop-color="#FDC600" stop-opacity="0"/>
</linearGradient>
</defs>
</svg>
