<svg width="98" height="41" viewBox="0 0 98 41" fill="none" xmlns="http://www.w3.org/2000/svg">
<path fill-rule="evenodd" clip-rule="evenodd" d="M22.8595 29.1825C21.439 29.0055 20.1961 28.8284 18.9532 28.2973H18.7756C18.2429 28.1203 17.8878 27.7662 17.8878 27.2351L17.1776 24.5795L17 23.6943V23.5172L17.1776 23.3402H17.5327L17.7102 23.8713C17.8878 24.5795 18.2429 25.1106 18.7756 25.8188C19.841 27.058 21.0839 27.7662 22.6819 28.1203C23.9248 28.1203 25.1678 27.9432 26.2331 27.2351C27.1209 26.704 27.8311 25.9958 28.0087 24.9336C28.3638 23.3402 27.6536 21.7469 26.2331 21.2157L23.037 19.7994C21.7941 19.4453 20.7288 18.9142 19.841 18.3831C18.9532 17.852 18.2429 17.1438 17.8878 16.2586C17.5327 15.5505 17.5327 14.6653 17.5327 13.9571C17.7102 11.8326 18.9532 10.4163 20.7288 9.70816C22.5044 9 24.1024 9 25.878 9.53112L26.9433 9.8852H27.8311L28.0087 9.70816L28.3638 9.8852V10.2393L28.7189 12.7178L28.8965 13.7801V13.9571L28.7189 14.1341H28.3638L28.1863 13.603C27.8311 12.5408 27.2985 11.8326 26.4107 11.1245C25.5229 10.5934 24.6351 10.2393 23.5697 10.0622C22.6819 9.8852 21.7941 9.8852 20.9063 10.4163C20.0185 10.7704 19.3083 11.4786 19.1307 12.5408C18.9532 13.603 19.1307 14.4882 19.841 15.1964C20.1961 15.7275 20.7288 16.2586 21.2614 16.4357L24.8126 17.6749C26.0556 18.2061 27.1209 18.5601 27.8311 19.4453C28.7189 20.1535 29.4292 21.0387 29.4292 22.278C29.7843 24.5795 29.0741 26.3499 27.2985 27.7662C26.2331 28.4744 25.1678 28.8284 23.9248 29.0055L22.8595 29.1825ZM55.8856 16.9668L55.708 17.852L55.3529 18.5601C54.9978 19.2683 54.11 19.2683 53.7549 18.7372L53.3998 17.852L51.8017 12.8949H53.2222L53.9324 15.1964L54.6427 18.029L54.8202 18.2061L54.9978 18.029L55.708 16.0816V15.9045L54.8202 13.0719V12.7178H56.0632L56.2407 12.8949L56.951 15.3734L57.6612 18.029L57.8388 18.2061H58.0163V17.852C58.6175 16.1438 59.2093 14.4324 59.7919 12.7178H60.147L59.7919 13.9571L58.549 17.852L58.1939 18.5601C57.8388 19.2683 56.951 19.2683 56.5958 18.5601L56.0632 17.4979L55.8856 16.7897V16.9668ZM74.8845 18.9142H73.2865L71.866 15.9045L72.3987 15.7275C72.9313 15.7275 73.1089 15.3734 73.2865 14.8423L73.1089 13.9571C73.1089 13.603 72.7538 13.426 72.2211 13.249H71.3333V18.9142H69.9128V12.7178H72.3987L73.6416 12.8949C74.7069 13.426 74.8845 14.3112 74.5294 15.0193L73.6416 15.9045H73.2865L74.8845 18.9142ZM46.2974 24.0484L45.7647 24.4024L45.5871 23.8713C45.0544 23.3402 44.3442 23.1632 43.634 23.3402C43.1013 23.5172 42.9237 23.8713 42.7462 24.2254L42.3911 25.4647C42.3911 26.1728 42.3911 26.881 42.7462 27.4121C42.7462 27.7662 42.9237 28.1203 43.2789 28.2973C43.634 28.6514 43.9891 28.8284 44.5218 28.6514C44.8769 28.6514 45.0544 28.2973 45.232 27.9432L45.4096 27.058V26.1728V25.9958H46.4749V31.484H45.4096V28.6514L45.232 28.8284C44.3442 29.3596 43.4564 29.3596 42.5686 28.8284C41.6808 28.2973 41.1481 27.4121 41.1481 26.3499C40.9706 25.6417 41.1481 24.9336 41.5033 24.2254C42.0359 23.5172 42.5686 22.9861 43.4564 22.8091C44.5218 22.632 45.4096 22.8091 45.9422 23.5172L46.2974 24.0484ZM55.8856 24.0484L55.3529 24.4024L55.1754 24.0484C54.8202 23.3402 54.11 23.1632 53.3998 23.3402C52.8671 23.3402 52.6895 23.6943 52.3344 24.0484L52.1568 25.2876V27.2351L52.6895 28.2973L53.9324 28.6514C54.2876 28.6514 54.6427 28.2973 54.8202 27.9432L54.9978 27.2351V26.1728V25.9958H56.0632V31.484H54.9978V28.6514H54.8202C53.9324 29.5366 52.6895 29.1825 51.8017 28.6514C50.9139 27.9432 50.5588 26.881 50.5588 25.8188C50.7364 24.5795 51.269 23.6943 52.1568 23.1632C53.0446 22.632 53.9324 22.632 54.8202 22.9861C55.3529 23.1632 55.708 23.5172 55.8856 24.0484ZM35.4662 19.0913C33.6906 19.0913 32.4477 17.852 32.2701 16.2586C32.0926 15.5505 32.2701 15.0193 32.4477 14.4882C32.8028 13.249 33.8682 12.7178 35.1111 12.7178C36.5316 12.7178 37.7745 13.603 38.1296 15.0193V17.3209C37.7745 18.3831 36.7091 19.0913 35.4662 19.0913ZM33.5131 15.9045L33.6906 16.6127L34.2233 18.2061C34.756 18.7372 35.6438 18.7372 36.1765 18.2061L36.7091 17.3209L36.8867 14.8423L36.1765 13.426C35.6438 12.8949 34.756 12.8949 34.2233 13.426L33.8682 14.1341L33.5131 15.9045ZM42.3911 12.8949H43.8115V13.249L43.634 13.426H42.5686L42.3911 13.603V18.9142H41.1481V18.7372V10.9474V10.0622C41.3257 9.53112 41.6808 9.17704 42.2135 9H43.634L43.8115 9.17704C43.8115 9.53112 43.8115 9.53112 43.4564 9.53112H42.9237C42.5686 9.70816 42.3911 9.70816 42.3911 10.2393V12.8949ZM32.2701 22.9861H33.5131V26.881L33.6906 27.5892C33.8682 28.1203 34.2233 28.2973 34.756 28.4744L35.1111 28.2973C35.6438 28.2973 35.9989 27.9432 36.1765 27.2351V26.5269V23.1632L36.354 22.9861C36.7091 22.9861 36.7091 22.9861 36.7091 23.3402V26.881L36.5316 27.9432C36.354 28.6514 35.8213 29.0055 35.1111 29.1825L33.6906 29.0055C32.9804 28.8284 32.4477 28.2973 32.2701 27.5892V26.881V23.1632V22.9861ZM67.2494 18.9142H66.0065L65.4738 17.4979L65.2963 16.9668H63.3431L62.988 17.1438L62.6329 18.7372L62.4553 18.9142H61.9226L62.2778 18.029L63.5207 13.603V13.249C63.8758 12.5408 64.9411 12.3638 65.4738 13.0719L65.8289 13.7801L67.2494 18.7372V18.9142ZM65.2963 16.4357H65.1187L64.9411 15.5505L64.586 13.9571L64.2309 13.603L64.0533 13.9571H63.8758L63.5207 15.3734L63.1656 16.4357H65.2963ZM81.4542 12.8949V13.249H79.3235C78.7908 13.249 78.7908 13.426 78.7908 13.9571V15.3734H80.744L80.9215 15.5505C80.9215 15.9045 80.9215 15.9045 80.5664 15.9045H78.7908V17.852C78.7908 18.2061 78.7908 18.3831 79.1459 18.3831H81.4542V18.9142H78.0806C77.5479 18.7372 77.3703 18.5601 77.3703 18.2061V17.4979V13.603V13.426C77.5479 13.0719 77.7255 12.8949 78.0806 12.8949L78.4357 12.7178H81.2766L81.4542 12.8949ZM64.2309 25.4647V25.9958H62.1002V28.1203C62.1002 28.2973 62.1002 28.4744 62.4553 28.4744H64.7636V29.0055H61.3899C61.0348 28.8284 60.8573 28.8284 60.8573 28.4744V28.1203V23.8713V23.5172C60.8573 23.1632 61.0348 22.9861 61.5675 22.9861H64.7636V23.3402H63.3431L62.6329 23.5172C62.2778 23.5172 62.1002 23.5172 62.1002 23.8713V25.2876L62.2778 25.4647H64.2309ZM69.2026 28.4744H71.1557C71.866 28.2973 72.0435 27.5892 71.5109 27.058L70.8006 26.5269L69.5577 25.6417C69.2026 25.2876 69.025 24.9336 69.025 24.4024C69.2026 23.5172 69.7353 23.1632 70.4455 22.9861L72.2211 22.8091L72.3987 22.9861H72.5762V23.3402H71.6884L70.8006 23.5172C70.2679 23.6943 70.0904 24.2254 70.4455 24.5795L71.1557 25.1106L72.3987 25.9958C73.464 26.5269 73.2865 28.2973 72.2211 28.8284C71.6884 29.0055 71.1557 29.1825 70.6231 29.0055H69.3801L69.2026 28.8284V28.4744ZM48.4281 18.9142H47.0076V18.7372V13.603L46.83 13.249H45.7647V12.8949H49.671V13.249H48.4281V18.9142ZM79.6786 29.0055H78.4357V23.5172H77.3703L77.1928 23.3402C77.1928 22.8091 77.0152 22.9861 77.5479 22.9861H81.0991V23.3402L80.9215 23.5172H80.0337C79.6786 23.5172 79.8562 23.3402 79.8562 23.6943V28.8284L79.6786 29.0055Z" fill="#0D4283"/>
</svg>
